<?xml version="1.0" ?><svg style="enable-background:new 0 0 48 48.00004;" version="1.1" viewBox="0 0 48 48.00004" xml:space="preserve" xmlns="http://www.w3.org/2000/svg" xmlns:xlink="http://www.w3.org/1999/xlink"><g id="Icons"><path d="M38.57113,34.87261H9.42877c-1.21976,0-2.20851-0.98875-2.20851-2.20851V15.33605   c0-1.21976,0.98886-2.20862,2.20862-2.20862h29.14225c1.21976,0,2.20862,0.98886,2.20862,2.20862v17.32793   C40.77974,33.88375,39.79089,34.87261,38.57113,34.87261z" style="fill:#1D97FF;"/><path d="   M38.57113,34.87261H9.42877c-1.21976,0-2.20851-0.98875-2.20851-2.20851V15.33605c0-1.21976,0.98886-2.20862,2.20862-2.20862   h29.14225c1.21976,0,2.20862,0.98886,2.20862,2.20862v17.32793C40.77974,33.88375,39.79089,34.87261,38.57113,34.87261z" style="fill:none;stroke:#303030;stroke-width:0.8;stroke-linecap:round;stroke-linejoin:round;stroke-miterlimit:10;"/><g><path d="M16.65234,22.78137v0.62494h7.24084l-0.0036-1.32196h0.14026    c0.09796,0.00323,0.12677,0.01245,0.12677,0.17438v1.14758h3.74493v-0.30792c0.302,0.16199,0.77179,0.30792,1.39014,0.30792    h1.57538l0.33722-0.80536h0.74738l0.32983,0.80536h3.03607v-0.76514l0.45972,0.76514h2.43292v-5.05707h-2.40778v0.59729    l-0.33716-0.59729h-2.47058v0.59729l-0.30963-0.59729h-3.33728c-0.55859,0-1.0495,0.07794-1.44623,0.29529v-0.29529h-2.30298    v0.29529c-0.25244-0.22394-0.5965-0.29529-0.97894-0.29529h-8.41357l-0.56464,1.30621l-0.57965-1.30621h-2.65002v0.59729    l-0.29126-0.59729H9.86047l-2.20862,5.05957l1.159-0.0025h0.00012h1.4809l0.33386-0.80536h0.74738l0.33301,0.80536h2.91364    V22.7904l0.26013,0.61841h1.51251L16.65234,22.78137z" style="fill:#303030;"/><path d="M40.33697,26.97686c0,0-0.10718-0.24713-0.29419-0.39484h0.29419v-1.99481H38.0415    c-0.48346,0-0.83557,0.11603-1.08508,0.29639v-0.29639h-2.37201c-0.37946,0-0.82458,0.09406-1.03564,0.29639v-0.29639h-4.23676    v0.29639c-0.33679-0.2428-0.90558-0.29639-1.16803-0.29639h-2.79425v0.29639c-0.26691-0.25812-0.86066-0.29639-1.22162-0.29639    H21.0003l-0.71521,0.77429l-0.67029-0.77429h-4.672v5.0603h4.58337l0.73816-0.78644l0.69446,0.78644l2.82483,0.00323v-1.1908    h0.27783c0.37506,0.00531,0.81812-0.00891,1.2074-0.17737v1.36493h2.33051v-1.31891h0.11261    c0.14325,0,0.15753,0.00653,0.15753,0.14978v1.16913h7.08026c0.4494,0,0.91864-0.11493,1.17877-0.32373v0.32373h2.24634    c0.46704,0,0.9231-0.06555,1.27075-0.23297c0,0,0.05481-0.03381,0.09863-0.06665c0.00543-0.00433,0.01208-0.00879,0.01752-0.01422    c0.00641-0.00433,0.01202-0.00989,0.0174-0.01428c0.18597-0.16718,0.49982-0.52606,0.5578-0.88263    C40.33697,28.43676,40.54687,27.8266,40.33697,26.97686z" style="fill:#303030;"/></g><path d="M24.14522,25.31196h-2.76996l-1.10004,1.19l-1.06-1.19h-3.48999v3.62h3.42999l1.10999-1.20001   l1.07001,1.20001h1.67999v-1.21002h1.09003c0.75,0,1.5-0.20996,1.5-1.21997C25.60524,25.50196,24.83522,25.31196,24.14522,25.31196   z M18.71522,28.18196h-2.13v-0.71997h1.91003v-0.74005h-1.91003v-0.65997h2.17999l0.94,1.04999L18.71522,28.18196z    M22.15523,28.60194l-1.32996-1.46997l1.32996-1.42999V28.60194z M24.13527,26.98195h-1.12006v-0.91998h1.13   c0.32001,0,0.53003,0.12,0.53003,0.44S24.47523,26.98195,24.13527,26.98195z M28.89522,27.25196   c0.22003-0.09003,0.61005-0.39001,0.61005-0.97003c0-0.40997-0.17004-0.63995-0.44-0.79999   c-0.29004-0.14996-0.61005-0.16998-1.05005-0.16998h-2v3.62h0.87006v-1.32001h0.92999c0.31,0,0.51001,0.03003,0.63,0.16003   c0.16998,0.16998,0.13995,0.48999,0.13995,0.70996v0.45001h0.87v-0.71002c0-0.32996-0.01996-0.48999-0.13995-0.66998   C29.24525,27.45198,29.08522,27.32197,28.89522,27.25196z M28.36525,26.80195c-0.10999,0.07001-0.26001,0.07001-0.42999,0.07001   h-1.04999v-0.81h1.06995c0.15002,0,0.31,0,0.41003,0.06c0.12,0.06,0.17999,0.16998,0.17999,0.33002   C28.54524,26.60194,28.48524,26.73195,28.36525,26.80195z M32.87526,26.06196v-0.75h-2.89001v3.62h2.89001v-0.75h-2.03003v-0.71997   h1.98004v-0.74005h-1.98004v-0.65997H32.87526z M36.18525,27.02198c-0.19-0.20001-0.52002-0.28003-0.98999-0.29004   l-0.46002-0.01001c-0.15002,0-0.25-0.00995-0.34003-0.03998c-0.10999-0.04999-0.19-0.14001-0.19-0.27002   c0-0.12,0.03003-0.20996,0.13-0.26996c0.09003-0.06,0.19-0.06,0.35004-0.06h1.58997v-0.77002h-1.73999   c-0.90997,0-1.23999,0.54999-1.23999,1.08002c0,1.13995,1.02002,1.08997,1.83002,1.12c0.14996,0,0.23999,0.01996,0.29999,0.07996   c0.06,0.05005,0.10999,0.13,0.10999,0.24005c0,0.09998-0.03998,0.17999-0.09998,0.23999   c-0.08002,0.06-0.19,0.08997-0.35999,0.08997h-1.68005v0.77002h1.69c0.87,0,1.36005-0.35999,1.36005-1.14001   C36.44526,27.42195,36.35524,27.20198,36.18525,27.02198z M39.64521,27.11195c-0.01996-0.02997-0.04999-0.06-0.07996-0.08997   c-0.19-0.20001-0.51001-0.28003-0.98004-0.29004l-0.46997-0.01001c-0.15002,0-0.25-0.00995-0.34003-0.03998   c-0.10999-0.03998-0.19-0.14001-0.19-0.27002c0-0.12,0.04004-0.20996,0.13-0.26996c0.09003-0.06,0.19-0.06,0.35004-0.06h1.57996   v-0.77002h-1.72998c-0.90997,0-1.23999,0.54999-1.23999,1.08002c0,1.13995,1.02002,1.08997,1.83002,1.12   c0.14996,0,0.23999,0.01996,0.29999,0.07996c0.07001,0.05005,0.10999,0.13,0.10999,0.24005   c0,0.09998-0.03998,0.17999-0.09998,0.23999c-0.07001,0.06-0.19,0.08997-0.35004,0.08997h-1.66998v0.77002h1.66998   c0.56,0,0.97003-0.15002,1.17999-0.46002C40.07527,27.68196,39.64521,27.11195,39.64521,27.11195z" style="fill:#FFFFFF;"/><path d="M16.72523,19.07197l-1.03998,2.45996l-1.14001-2.45996h-1.40997v3.42999l-1.47003-3.42999h-1.28998   l-1.54999,3.62h0.93994l0.33002-0.81h1.81l0.33002,0.81h1.76001v-2.84003l1.26001,2.84003h0.75995l1.26001-2.84003v2.84003h0.89001   v-3.62H16.72523z M10.40522,21.13197l0.59003-1.45001l0.59998,1.45001H10.40522z" style="fill:#FFFFFF;"/><polygon points="21.70521,22.69197 18.81526,22.69197 18.81526,19.07197 21.70521,19.07197    21.70521,19.82197 19.68526,19.82197 19.68526,20.47194 21.66524,20.47194 21.66524,21.22194 19.68526,21.22194 19.68526,21.94197    21.70521,21.94197  " style="fill:#FFFFFF;"/><path d="M25.18526,21.01197c0.21997-0.09003,0.60999-0.39001,0.60999-0.97003   c0-0.39996-0.16998-0.64001-0.44-0.79999c-0.27997-0.15997-0.60999-0.16998-1.04999-0.16998h-2v3.62h0.87v-1.32001h0.92999   c0.31,0,0.51001,0.02997,0.63,0.15997c0.15997,0.17004,0.14001,0.49005,0.14001,0.70001v0.46002h0.88v-0.71002   c0-0.32001-0.02002-0.48999-0.15002-0.66998C25.53523,21.21199,25.37526,21.08198,25.18526,21.01197z M24.65523,20.55195   c-0.12,0.07001-0.26001,0.08002-0.42999,0.08002h-1.04999v-0.81h1.07001c0.14996,0,0.31,0.01001,0.40997,0.07001   c0.10999,0.04999,0.17999,0.15997,0.17999,0.32001C24.83522,20.37196,24.77522,20.49195,24.65523,20.55195z" style="fill:#FFFFFF;"/><rect height="3.62" style="fill:#FFFFFF;" width="0.88" x="26.29524" y="19.07197"/><path d="M36.54524,19.07197v2.51996l-1.52002-2.51996h-1.32001v3.42999l-1.46997-3.42999h-1.28998   l-1.23004,2.84998h-0.38c-0.22998,0-0.47998-0.04999-0.60999-0.19c-0.15997-0.17999-0.23999-0.45996-0.23999-0.84998   c0-0.38,0.09998-0.66998,0.25-0.82001c0.16998-0.16998,0.34998-0.22003,0.66998-0.22003h0.82001v-0.76996h-0.83997   c-0.60004,0-1.03003,0.13-1.31,0.41998c-0.38,0.39001-0.47003,0.88-0.47003,1.41998c0,0.66003,0.15997,1.07001,0.46002,1.38   c0.29999,0.31,0.83997,0.40002,1.26001,0.40002h1.00995l0.33002-0.81h1.79999l0.34003,0.81h1.76001v-2.72003l1.63995,2.72003   h1.23004v-3.62H36.54524z M30.97523,21.13197l0.59003-1.45001l0.59997,1.45001H30.97523z" style="fill:#FFFFFF;"/></g></svg>