<?xml version="1.0" ?><svg style="enable-background:new 0 0 48 48;" version="1.1" viewBox="0 0 48 48" xml:space="preserve" xmlns="http://www.w3.org/2000/svg" xmlns:xlink="http://www.w3.org/1999/xlink"><g id="Icons"><g><path d="M38.54216,34.85378H9.45774c-1.21966,0-2.20851-0.98875-2.20851-2.2084V15.35484    c0-1.21976,0.98886-2.20862,2.20862-2.20862h29.08431c1.21976,0,2.20861,0.98886,2.20861,2.20862v17.29032    C40.75077,33.86503,39.76192,34.85378,38.54216,34.85378z" style="fill:#F9F9F9;"/><circle cx="28.88672" cy="24.07316" r="7.14139" style="fill:#FFC601;"/><circle cx="19.2703" cy="24.07316" r="7.14139" style="fill:#F43735;"/><path d="    M38.54216,34.85378H9.45774c-1.21966,0-2.20851-0.98875-2.20851-2.2084V15.35484c0-1.21976,0.98886-2.20862,2.20862-2.20862    h29.08431c1.21976,0,2.20861,0.98886,2.20861,2.20862v17.29032C40.75077,33.86503,39.76192,34.85378,38.54216,34.85378z" style="fill:none;stroke:#303030;stroke-width:0.8;stroke-linecap:round;stroke-linejoin:round;stroke-miterlimit:10;"/><path d="M14.90982,23.05436c-0.13176,0.76512-0.26341,1.53036-0.3967,2.30472    c-0.21482,0-0.42583,0-0.65609,0c0.18155-1.0693,0.36201-2.13285,0.54433-3.20661c0.32821,0,0.65098,0,1.0156,0    c0,0.62293,0,1.24716,0,1.87161c0.0187,0.00141,0.03761,0.00294,0.05631,0.00446c0.12035-0.35104,0.2408-0.70207,0.36115-1.053    c0.08284-0.24189,0.1622-0.48497,0.25145-0.72447c0.01631-0.04403,0.07077-0.10393,0.10893-0.1048    c0.32451-0.00837,0.64913-0.00489,1.00538-0.00489c-0.18014,1.0792-0.35767,2.14241-0.53694,3.21628    c-0.23014,0-0.45649,0-0.69783,0c0.12024-0.75338,0.2395-1.50231,0.35886-2.25124c-0.01-0.00261-0.02011-0.00522-0.03-0.00783    c-0.02479,0.06219-0.0511,0.12372-0.07393,0.18666c-0.2345,0.64576-0.47225,1.29032-0.6987,1.93901    c-0.04153,0.11893-0.09708,0.15916-0.21623,0.14687c-0.09404-0.00957-0.18992-0.00185-0.30701-0.00185    c-0.02098-0.7773-0.04175-1.54286-0.06251-2.30831C14.92711,23.05881,14.91841,23.05653,14.90982,23.05436z" style="fill:#FFFFFF;"/><path d="M33.31499,23.02642c0.05012-0.29994,0.09752-0.58303,0.14699-0.87906    c0.22144,0,0.44246,0,0.68108,0c-0.0512,0.31701-0.10219,0.63489-0.15405,0.95255    c-0.11589,0.71023-0.23536,1.4198-0.34538,2.13067c-0.01641,0.10632-0.05751,0.13132-0.15393,0.12785    c-0.1697-0.00587-0.33984-0.00152-0.52074-0.00152c0-0.07393,0-0.13459,0-0.19688    c-0.11502,0.0636-0.21547,0.13502-0.32712,0.17796c-0.44572,0.1709-0.88732-0.03544-1.04702-0.50921    c-0.21808-0.6475-0.09241-1.24944,0.33777-1.77018C32.32331,22.58558,32.80078,22.58037,33.31499,23.02642z M33.14247,23.88536    c-0.01413-0.09404-0.01848-0.19101-0.04403-0.28179c-0.07371-0.26341-0.34451-0.3631-0.5639-0.20003    c-0.08588,0.06382-0.16035,0.15774-0.20938,0.25363c-0.11415,0.22319-0.13872,0.46594-0.1035,0.71403    c0.02294,0.16133,0.08132,0.30081,0.25265,0.3531c0.16698,0.05099,0.34212-0.01794,0.46051-0.17796    C33.07963,24.35087,33.13388,24.1266,33.14247,23.88536z" style="fill:#FFFFFF;"/><path d="M18.41344,23.70729c0.08393-0.25428,0.00609-0.3918-0.24851-0.39169    c-0.2894,0.00011-0.57869,0.03533-0.87678,0.05599c0.01229-0.07414,0.02826-0.17198,0.04479-0.26983    c0.04979-0.29494,0.0474-0.31298,0.34201-0.35332c0.26613-0.03653,0.54237-0.06153,0.8072-0.03098    c0.43061,0.04957,0.68163,0.403,0.62684,0.8334c-0.07414,0.58118-0.15709,1.16139-0.24145,1.74126    c-0.00587,0.04066-0.05196,0.10545-0.08241,0.10741c-0.16861,0.01055-0.3381,0.00511-0.51552,0.00511    c0-0.08067,0-0.14231,0-0.18546c-0.16709,0.0749-0.32679,0.17579-0.50073,0.2184    c-0.43648,0.10676-0.77306-0.14535-0.82122-0.58966c-0.07066-0.6525,0.32832-1.09203,1.03952-1.13921    C18.12959,23.69913,18.2732,23.70729,18.41344,23.70729z M18.33951,24.25955c-0.24504-0.04262-0.45225-0.01174-0.58705,0.08077    c-0.16166,0.11089-0.21232,0.35158-0.10328,0.49095c0.10469,0.13394,0.33712,0.12915,0.48193-0.01631    C18.28125,24.66408,18.33755,24.47557,18.33951,24.25955z" style="fill:#FFFFFF;"/><path d="M29.54645,23.70522c0.06207-0.28374-0.00228-0.39169-0.26852-0.39365    c-0.27971-0.00217-0.55987,0.03522-0.8584,0.05653c0.02272-0.1447,0.04631-0.31994,0.0811-0.49312    c0.00598-0.0299,0.0561-0.06164,0.09208-0.07338c0.33375-0.10817,0.67326-0.16144,1.02353-0.09317    c0.4242,0.08284,0.67533,0.42105,0.61825,0.84959c-0.08088,0.60727-0.16992,1.21346-0.25732,1.83258    c-0.19068,0-0.37952,0-0.5764,0c0-0.06719,0-0.13404,0-0.21841c-0.05914,0.04577-0.1073,0.08523-0.15763,0.12165    c-0.26276,0.19057-0.63336,0.2221-0.87416,0.06653c-0.29363-0.18992-0.32734-0.4866-0.28994-0.79339    c0.06273-0.51345,0.44616-0.82763,1.02984-0.86057C29.25205,23.69838,29.39599,23.70522,29.54645,23.70522z M29.47144,24.25042    c-0.21525-0.02826-0.40876-0.02696-0.58434,0.08436c-0.12926,0.08197-0.19036,0.21069-0.15448,0.35484    c0.02011,0.08067,0.0861,0.17949,0.15753,0.21156c0.13426,0.06012,0.27059,0.0137,0.3755-0.09643    C29.40882,24.65451,29.45752,24.46872,29.47144,24.25042z" style="fill:#FFFFFF;"/><path d="M22.9083,24.31967c-0.0387,0.25939,0.06925,0.43279,0.31418,0.50247    c0.26678,0.07577,0.52846,0.02946,0.78708-0.04696c0.06599-0.01957,0.13122-0.04142,0.22374-0.07077    c-0.03893,0.21482-0.07143,0.41257-0.11405,0.60803c-0.00652,0.02935-0.05816,0.06044-0.09436,0.0699    c-0.34538,0.09012-0.69457,0.11654-1.04365,0.02663c-0.42083-0.1085-0.6687-0.38735-0.74099-0.81024    c-0.09621-0.56368,0.01272-1.08463,0.3855-1.53025c0.23732-0.28374,0.54683-0.42366,0.92102-0.37843    c0.58978,0.07142,0.91004,0.52606,0.8285,1.16378c-0.05794,0.45355-0.05794,0.45344-0.51476,0.45377    c-0.30418,0.00011-0.60836,0.00065-0.91232,0.00152C22.93809,24.30913,22.92798,24.31424,22.9083,24.31967z M22.96309,23.76262    c0.23254,0,0.45442,0.00228,0.67609-0.00294c0.03142-0.00065,0.08088-0.03261,0.0898-0.06045    c0.06121-0.19036-0.09762-0.40865-0.29798-0.41854C23.17856,23.2682,22.99886,23.44464,22.96309,23.76262z" style="fill:#FFFFFF;"/><path d="M28.25308,22.24618c-0.03543,0.23276-0.06979,0.45834-0.10534,0.69327    c-0.14491-0.04914-0.28059-0.10741-0.42203-0.14089c-0.34962-0.08262-0.65064,0.03175-0.84894,0.33027    c-0.24221,0.36462-0.30799,0.7711-0.21004,1.19389c0.0848,0.36658,0.41061,0.5565,0.7834,0.47464    c0.13839-0.03022,0.27243-0.08164,0.42126-0.12741c-0.03566,0.22569-0.06762,0.44594-0.10839,0.66478    c-0.00587,0.0312-0.05229,0.07458-0.08382,0.07817c-0.23689,0.02729-0.47877,0.08404-0.71153,0.05968    c-0.53009-0.05523-0.85829-0.36658-0.98103-0.88786c-0.12752-0.54139-0.07762-1.073,0.15166-1.5783    C26.52378,22.15627,27.35229,21.85818,28.25308,22.24618z" style="fill:#FFFFFF;"/><path d="M20.91221,22.73963c-0.02913,0.20558-0.05457,0.38474-0.08251,0.58216    c-0.14339-0.00641-0.27994-0.01359-0.41648-0.01848c-0.25287-0.00891-0.38485,0.04131-0.40572,0.16948    c-0.03414,0.21014,0.1422,0.25722,0.27831,0.3144c0.37126,0.15622,0.60532,0.41648,0.48138,1.01788    c-0.05958,0.28929-0.2508,0.46877-0.52954,0.54074c-0.39496,0.10186-0.79078,0.06175-1.20302-0.01826    c0.02956-0.19981,0.05707-0.38658,0.08327-0.56433c0.23765,0.02207,0.46268,0.04707,0.68826,0.0611    c0.06653,0.00413,0.13992-0.01152,0.20134-0.03827c0.14807-0.06447,0.1759-0.23493,0.05001-0.33658    c-0.08991-0.07262-0.19797-0.12361-0.30081-0.17927c-0.37495-0.2034-0.5178-0.48269-0.44757-0.88123    c0.06882-0.39104,0.307-0.61445,0.71946-0.68163C20.32114,22.65973,20.6089,22.6843,20.91221,22.73963z" style="fill:#FFFFFF;"/><path d="M21.31,22.36337c0.23829,0,0.44985,0,0.67402,0c-0.01827,0.12828-0.03512,0.247-0.0536,0.37691    c0.11034,0.00533,0.20927,0.01,0.32657,0.01576c-0.02696,0.20862-0.05251,0.40702-0.08001,0.61988c-0.116,0-0.22536,0-0.35462,0    c-0.04262,0.25047-0.08371,0.48932-0.12383,0.72838c-0.0212,0.126-0.04012,0.25232-0.06099,0.37843    c-0.03827,0.23102,0.03805,0.31635,0.2745,0.30451c0.03664-0.00174,0.07316-0.00598,0.13035-0.01087    c-0.02402,0.17514-0.04403,0.34169-0.07229,0.50682c-0.005,0.02892-0.04218,0.07154-0.06849,0.07458    c-0.19905,0.0237-0.40213,0.06936-0.59781,0.04925c-0.23765-0.02424-0.38365-0.21786-0.37332-0.48203    c0.01163-0.29679,0.05251-0.59347,0.09828-0.88754C21.11551,23.4804,21.21476,22.92553,21.31,22.36337z" style="fill:#FFFFFF;"/><path d="M30.85862,25.38789c-0.24384,0-0.4716,0-0.70696,0    c0.14393-0.88123,0.28645-1.75311,0.43028-2.63369c0.21428,0,0.4192,0,0.63837,0c-0.01403,0.10404-0.02729,0.20264-0.0449,0.33451    c0.18416-0.20406,0.33919-0.41855,0.63869-0.37049c-0.08241,0.25939-0.16351,0.51497-0.24558,0.77306    c-0.22819,0.0075-0.32625,0.05968-0.39224,0.30614c-0.09469,0.35397-0.15687,0.71675-0.22906,1.07659    C30.91286,25.04512,30.88765,25.21808,30.85862,25.38789z" style="fill:#FFFFFF;"/><path d="M25.06322,25.39104c-0.24319,0-0.46638,0-0.70588,0c0.05436-0.34136,0.10654-0.67554,0.161-1.0093    c0.08241-0.50497,0.16883-1.00908,0.24722-1.51459c0.01413-0.09165,0.0424-0.12937,0.13926-0.12535    c0.16937,0.00707,0.33919,0.00196,0.52107,0.00196c-0.01577,0.11654-0.02925,0.21569-0.04708,0.34647    c0.18481-0.20623,0.34082-0.42072,0.64054-0.37202c-0.08306,0.26059-0.1647,0.51671-0.24666,0.77426    c-0.222,0.00359-0.3243,0.05599-0.38811,0.29309c-0.09654,0.35897-0.16003,0.72697-0.23352,1.09192    C25.11746,25.04392,25.09355,25.21221,25.06322,25.39104z" style="fill:#FFFFFF;"/><path d="M12.85047,26.20976h0.11882c-0.0262-0.07447-0.05762-0.14611-0.08131-0.22167L12.85047,26.20976z" style="fill:#FFFFFF;"/><g><path d="     M25.70342,20.98725c-0.41-0.88-1-1.66-1.72-2.29c-1.26-1.13-2.9-1.8-4.71-1.8c-3.93,0-7.1,3.18-7.1,7.1s3.17,7.1,7.1,7.1     c1.81,0,3.45-0.67,4.71-1.8c0.68-0.59,1.24-1.32,1.64-2.14" style="fill:none;stroke:#303030;stroke-width:0.8;stroke-linecap:round;stroke-linejoin:round;stroke-miterlimit:10;"/><path d="     M22.26342,20.98725c0.41-0.88,1-1.66,1.72-2.29c1.26-1.13,2.9-1.8,4.71-1.8c3.92,0,7.1,3.18,7.1,7.1s-3.18,7.1-7.1,7.1     c-1.81,0-3.45-0.67-4.71-1.8c-0.68-0.59-1.24-1.32-1.65-2.14" style="fill:none;stroke:#303030;stroke-width:0.8;stroke-linecap:round;stroke-linejoin:round;stroke-miterlimit:10;"/></g></g></g></svg>