<?xml version="1.0" ?><svg style="enable-background:new 0 0 48 48;" version="1.1" viewBox="0 0 48 48" xml:space="preserve" xmlns="http://www.w3.org/2000/svg" xmlns:xlink="http://www.w3.org/1999/xlink"><g id="Icons"><polygon points="8.0368,23.13889 12.23079,19.03639 35.78908,19.03639 39.9633,23.13889  " style="fill:#0049B0;"/><path d="M36.4055,23.02912V12.86539c0-0.3719-0.2997-0.6733-0.6693-0.6733H17.362h-4.2477   c-0.8384,0-1.5252-0.0615-1.5252,0.7899v1.9569v8.1573" style="fill:#A6BF86;"/><rect height="12.61" style="fill:#1D97FF;" width="31.9265" x="8.0368" y="23.13889"/><path d="M14.6434,23.08949c-0.3383-0.685-1.0412-1.1559-1.8529-1.1559h-0.008   c0-1.8714,0.008-4.5861,0.008-6.4575c1.1418,0,2.0679-0.9317,2.0679-2.0802h18.285c0,1.1485,0.9263,2.0802,2.0681,2.0802v6.4575   c-0.831,0-1.5478,0.4935-1.8764,1.2049" style="fill:#E6F4D0;"/><polyline points="   8.0368,23.13889 10.7068,23.13889 11.6868,23.13889 11.7668,23.13889 16.6568,23.13889 17.2968,23.13889 19.1768,23.13889    20.2968,23.13889 22.1668,23.13889 23.6168,23.13889 24.5468,23.13889 25.9868,23.13889 27.8967,23.13889 28.9768,23.13889    30.8967,23.13889 31.4968,23.13889 36.4268,23.13889 36.4768,23.13889 37.2968,23.13889 39.9667,23.13889 39.9667,35.80889    8.0368,35.74889  " style="fill:none;stroke:#303030;stroke-width:0.5;stroke-linecap:round;stroke-linejoin:round;stroke-miterlimit:10;"/><line style="fill:none;stroke:#303030;stroke-width:0.5;stroke-linecap:round;stroke-linejoin:round;stroke-miterlimit:10;" x1="8.0368" x2="8.0368" y1="35.74889" y2="23.13889"/><line style="fill:none;stroke:#303030;stroke-width:0.5;stroke-linecap:round;stroke-linejoin:round;stroke-miterlimit:10;" x1="11.5397" x2="8.0333" y1="19.81629" y2="23.13889"/><line style="fill:none;stroke:#303030;stroke-width:0.5;stroke-linecap:round;stroke-linejoin:round;stroke-miterlimit:10;" x1="39.9633" x2="36.4733" y1="23.13889" y2="19.83889"/><polygon points="10.5249,23.13889 11.6475,22.07359 11.9294,23.13889  " style="fill:#303030;"/><line style="fill:none;stroke:#303030;stroke-width:0.5;stroke-linecap:round;stroke-linejoin:round;stroke-miterlimit:10;" x1="37.19004" x2="36.4733" y1="23.04067" y2="22.35889"/><g><path d="M13.5652,29.93479c-0.1278,0-0.2557-0.0022-0.3835,0.0005    c-0.1636,0.0034-0.2667,0.0939-0.2926,0.2561c-0.073,0.4529-0.144,0.906-0.2174,1.3588c-0.0264,0.163-0.1292,0.2485-0.2964,0.249    c-0.3012,0.001-0.6026,0.0009-0.904,0c-0.147-0.0004-0.2104-0.0749-0.1875-0.2209c0.1583-1.0052,0.317-2.0104,0.4756-3.0155    c0.1101-0.6992,0.22-1.3983,0.331-2.0973c0.0254-0.1602,0.1267-0.2485,0.2869-0.2486c0.7121-0.0007,1.4242-0.0047,2.1362,0.0027    c0.3115,0.0032,0.6163,0.059,0.9028,0.1923c0.4201,0.1955,0.6583,0.5286,0.7006,0.9831c0.0538,0.5783-0.0661,1.1276-0.3688,1.6263    c-0.3043,0.5006-0.7727,0.7652-1.338,0.8575c-0.2778,0.0454-0.562,0.051-0.8433,0.0745    C13.5662,29.94719,13.5657,29.94099,13.5652,29.93479z M13.1069,28.81459c0.0213,0.0052,0.0329,0.0106,0.0443,0.0104    c0.2402-0.0052,0.4816,0.0015,0.7203-0.0197c0.3939-0.0349,0.6236-0.2262,0.7153-0.5712c0.018-0.0673,0.0294-0.1367,0.0389-0.2058    c0.0554-0.4047-0.1332-0.6488-0.5383-0.6843c-0.1875-0.0165-0.3766-0.0167-0.5649-0.0198    c-0.1344-0.0022-0.1914,0.0524-0.2122,0.1859c-0.0465,0.2972-0.0946,0.594-0.1412,0.8911    C13.1476,28.53829,13.1277,28.67569,13.1069,28.81459z" style="fill:#F9F9F9;"/><path d="M19.2333,28.46919c0.0124-0.0743,0.0253-0.1485,0.037-0.2229    c0.0181-0.1162,0.0719-0.1664,0.1888-0.1669c0.3074-0.0011,0.615-0.0015,0.9222,0.0002c0.1283,0.0007,0.1969,0.0807,0.177,0.2079    c-0.0984,0.6274-0.1986,1.2544-0.2981,1.8817c-0.0701,0.4441-0.142,0.8881-0.2097,1.3326    c-0.0322,0.2112-0.1263,0.2975-0.3404,0.2977c-0.2558,0.0002-0.5115,0.0004-0.7673-0.0001    c-0.1567-0.0003-0.2225-0.0771-0.1987-0.2307c0.0106-0.0684,0.0224-0.1366,0.0382-0.2333    c-0.0412,0.0372-0.0617,0.057-0.0836,0.0753c-0.5934,0.4967-1.2606,0.6138-1.9789,0.3417    c-0.4667-0.1768-0.7171-0.5628-0.8251-1.0345c-0.2441-1.0669,0.4037-2.4032,1.6888-2.6827    c0.3606-0.0784,0.7202-0.0625,1.075,0.0331C18.8918,28.13119,19.0873,28.25419,19.2333,28.46919z M18.2507,28.99229    c-0.0986,0.0156-0.1996,0.0225-0.2956,0.0483c-0.5036,0.135-0.841,0.6115-0.8071,1.132c0.0227,0.3466,0.2263,0.6009,0.5664,0.6689    c0.1488,0.0298,0.3105,0.0343,0.4604,0.0114c0.5935-0.0903,0.9983-0.6807,0.878-1.2608    C18.9762,29.22269,18.6789,29.00379,18.2507,28.99229z" style="fill:#F9F9F9;"/><path d="M27.8931,29.93479c-0.1278,0-0.2556-0.0022-0.3835,0.0005    c-0.1635,0.0034-0.2665,0.0939-0.2927,0.2561c-0.0728,0.4529-0.1438,0.906-0.2172,1.3588    c-0.0264,0.163-0.1292,0.2485-0.2965,0.249c-0.3013,0.001-0.6025,0.0009-0.9038,0c-0.1471-0.0004-0.2105-0.0749-0.1875-0.2209    c0.1582-1.0052,0.3169-2.0104,0.4754-3.0155c0.1103-0.6992,0.2201-1.3983,0.331-2.0973c0.0255-0.1602,0.1268-0.2485,0.2869-0.2486    c0.7121-0.0007,1.4243-0.0047,2.1362,0.0027c0.3117,0.0032,0.6164,0.059,0.9028,0.1923c0.4202,0.1955,0.6583,0.5286,0.7006,0.9831    c0.0539,0.5783-0.0661,1.1276-0.3689,1.6263c-0.304,0.5006-0.7726,0.7652-1.3379,0.8575    c-0.2777,0.0454-0.5619,0.051-0.8433,0.0745C27.8942,29.94719,27.8937,29.94099,27.8931,29.93479z M27.4349,28.81459    c0.0213,0.0052,0.0328,0.0106,0.0443,0.0104c0.2401-0.0052,0.4815,0.0015,0.7204-0.0197    c0.3938-0.0349,0.6235-0.2262,0.7151-0.5712c0.018-0.0673,0.0294-0.1367,0.0389-0.2058c0.0555-0.4047-0.1332-0.6488-0.5383-0.6843    c-0.1874-0.0165-0.3766-0.0167-0.5649-0.0198c-0.1345-0.0022-0.1913,0.0524-0.2122,0.1859    c-0.0465,0.2972-0.0944,0.594-0.1411,0.8911C27.4756,28.53829,27.4556,28.67569,27.4349,28.81459z" style="fill:#F9F9F9;"/><path d="M33.5613,28.46919c0.0124-0.0743,0.0254-0.1485,0.037-0.2229    c0.0181-0.1162,0.0718-0.1664,0.1888-0.1669c0.3074-0.0011,0.6148-0.0015,0.9223,0.0002    c0.1283,0.0007,0.1967,0.0807,0.1768,0.2079c-0.0983,0.6274-0.1986,1.2544-0.2979,1.8817    c-0.0704,0.4441-0.1422,0.8881-0.2099,1.3326c-0.0322,0.2112-0.1263,0.2975-0.3403,0.2977    c-0.2558,0.0002-0.5116,0.0004-0.7674-0.0001c-0.1566-0.0003-0.2225-0.0771-0.1986-0.2307    c0.0106-0.0684,0.0222-0.1366,0.0382-0.2333c-0.0412,0.0372-0.0618,0.057-0.0835,0.0753    c-0.5936,0.4967-1.2607,0.6138-1.9791,0.3417c-0.4666-0.1768-0.7169-0.5628-0.8249-1.0345    c-0.2443-1.0669,0.4035-2.4032,1.6888-2.6827c0.3604-0.0784,0.72-0.0625,1.0749,0.0331    C33.2199,28.13119,33.4152,28.25419,33.5613,28.46919z M32.5786,28.99229c-0.0985,0.0156-0.1997,0.0225-0.2955,0.0483    c-0.5036,0.135-0.841,0.6115-0.807,1.132c0.0225,0.3466,0.2262,0.6009,0.5662,0.6689c0.1488,0.0298,0.3105,0.0343,0.4604,0.0114    c0.5936-0.0903,0.9984-0.6807,0.8781-1.2608C33.3041,29.22269,33.0068,29.00379,32.5786,28.99229z" style="fill:#F9F9F9;"/><path d="M22.9985,30.17229c0.0328-0.0463,0.0539-0.0752,0.0739-0.1048    c0.4123-0.6063,0.8261-1.2117,1.2355-1.82c0.079-0.1174,0.1753-0.1733,0.3185-0.1704c0.2922,0.006,0.5844,0.0027,0.8768,0.0012    c0.075-0.0003,0.1409,0.0141,0.1774,0.086c0.0374,0.0737,0.0145,0.139-0.0305,0.2037c-1.0598,1.5274-2.119,3.0552-3.177,4.5839    c-0.0703,0.1015-0.1567,0.152-0.282,0.1504c-0.3016-0.004-0.603-0.0023-0.9043-0.0006c-0.0751,0.0004-0.1403-0.0132-0.1759-0.0868    c-0.0343-0.071-0.0146-0.1343,0.0292-0.1957c0.3121-0.4389,0.6224-0.8792,0.9358-1.3171c0.0376-0.0524,0.0459-0.096,0.0247-0.1581    c-0.3394-0.9884-0.6764-1.9776-1.0135-2.9668c-0.0137-0.04-0.0282-0.0812-0.0325-0.1228    c-0.0095-0.0935,0.0528-0.1721,0.1464-0.173c0.3318-0.0033,0.6639-0.007,0.9954,0.0022c0.1381,0.0038,0.2087,0.1061,0.2464,0.2338    c0.1327,0.4485,0.2677,0.8963,0.4021,1.3444C22.8937,29.82439,22.9428,29.98699,22.9985,30.17229z" style="fill:#F9F9F9;"/><path d="M36.0047,26.37239l-0.8021,5.2202c0,0-0.0638,0.2292,0.2928,0.2292    c0.3565,0,0.7257,0.0064,0.7257,0.0064s0.1847-0.0191,0.2292-0.2037c0.0446-0.1846,0.8021-5.2011,0.8021-5.2011    s0.0637-0.1783-0.1973-0.1783h-0.9104C36.1447,26.24509,36.0556,26.28329,36.0047,26.37239z" style="fill:#F9F9F9;"/></g><path d="   M36.4055,22.95392V12.86539c0-0.3719-0.2997-0.6733-0.6693-0.6733H17.362h-4.2477c-0.8384,0-1.5252-0.0615-1.5252,0.7899v1.9569   v8.1573" style="fill:none;stroke:#303030;stroke-width:0.5;stroke-linecap:round;stroke-linejoin:round;stroke-miterlimit:10;"/><path d="   M14.6434,23.08949c-0.3383-0.685-1.0412-1.1559-1.8529-1.1559h-0.008c0-1.8714,0.008-4.5861,0.008-6.4575   c1.1418,0,2.0679-0.9317,2.0679-2.0802h18.285c0,1.1485,0.9263,2.0802,2.0681,2.0802v6.4575   c-0.79813,0-1.49092,0.45523-1.83561,1.12153" style="fill:none;stroke:#303030;stroke-width:0.5;stroke-linecap:round;stroke-linejoin:round;stroke-miterlimit:10;"/><ellipse cx="23.997" cy="18.70539" rx="4.1359" ry="4.1603" style="fill:#A6BF86;"/><g><path d="M25.6885,18.96469c-0.1229-0.1999-0.2926-0.3573-0.5098-0.4727    c-0.2172-0.1152-0.5523-0.2268-1.0056-0.3345c-0.4531-0.108-0.7385-0.2115-0.8558-0.3111    c-0.0924-0.0781-0.1386-0.1722-0.1386-0.2821c0-0.1207,0.0494-0.217,0.1481-0.2888c0.153-0.1121,0.365-0.1681,0.6356-0.1681    c0.2622,0,0.4588,0.0524,0.59,0.1571c0.1312,0.1046,0.2167,0.2763,0.2564,0.5153l0.9315-0.0412    c-0.0147-0.4272-0.1682-0.7687-0.4609-1.0244c-0.2217-0.1939-0.5262-0.3137-0.9121-0.3607v-0.908h-0.7314v0.9123    c-0.2104,0.0242-0.4066,0.0631-0.5718,0.1341c-0.2508,0.108-0.4427,0.2649-0.5761,0.4711    c-0.1332,0.2062-0.1997,0.4279-0.1997,0.6645c0,0.3681,0.1418,0.6801,0.4248,0.9359c0.2014,0.182,0.5517,0.3352,1.051,0.46    c0.3881,0.0972,0.6365,0.165,0.746,0.2031c0.1592,0.057,0.2711,0.1243,0.3349,0.2014c0.0641,0.0771,0.0962,0.1707,0.0962,0.2806    c0,0.1713-0.0761,0.3209-0.2284,0.4488c-0.1522,0.1281-0.378,0.1921-0.678,0.1921c-0.2834,0-0.5083-0.0719-0.6751-0.2158    c-0.1666-0.1437-0.2775-0.369-0.3319-0.6756l-0.9063,0.0889c0.0609,0.5201,0.2476,0.9162,0.5601,1.1878    c0.2388,0.2076,0.5577,0.3345,0.9543,0.3835v0.8461h0.7314v-0.8483c0.2482-0.0242,0.4767-0.0653,0.6619-0.1433    c0.2686-0.1133,0.4761-0.2862,0.6231-0.5187c0.1469-0.2325,0.2202-0.482,0.2202-0.7486    C25.8725,19.41139,25.8111,19.16449,25.6885,18.96469z" style="fill:#E6F4D0;"/></g><ellipse cx="23.997" cy="18.70539" rx="4.1359" ry="4.1603" style="fill:none;stroke:#303030;stroke-width:0.5;stroke-linecap:round;stroke-linejoin:round;stroke-miterlimit:10;"/><line style="fill:none;stroke:#303030;stroke-width:0.5;stroke-linecap:round;stroke-linejoin:round;stroke-miterlimit:10;" x1="8.0333" x2="16.1294" y1="34.51149" y2="34.51149"/><line style="fill:none;stroke:#303030;stroke-width:0.5;stroke-linecap:round;stroke-linejoin:round;stroke-miterlimit:10;" x1="17.4594" x2="18.1099" y1="34.51149" y2="34.51149"/></g></svg>