<?xml version="1.0" ?><svg style="enable-background:new 0 0 48 48;" version="1.1" viewBox="0 0 48 48" xml:space="preserve" xmlns="http://www.w3.org/2000/svg" xmlns:xlink="http://www.w3.org/1999/xlink"><g id="Icons"><g><g><path d="M38.66391,34.9327H9.33609c-1.21976,0-2.20862-0.98886-2.20862-2.20862V15.27592     c0-1.21976,0.98886-2.20862,2.20862-2.20862h29.32782c1.21976,0,2.20862,0.98886,2.20862,2.20862v17.44817     C40.87253,33.94385,39.88367,34.9327,38.66391,34.9327z" style="fill:#F9F9F9;"/></g><path d="M16.44116,25.25841c0.00967,0.05175,0.02261,0.10284,0.06426,0.16481    c0.72131-1.82193,1.4424-3.64353,2.16252-5.46263c0.73229,0,1.45687,0,2.19894,0    c-0.03968,0.10056-0.07272,0.18905-0.10937,0.27635c-1.07485,2.56564-2.15089,5.13116-3.22346,7.69789    c-0.04109,0.09784-0.09002,0.13502-0.19971,0.13426c-0.64956-0.00576-1.29956-0.00457-1.94923-0.00065    c-0.09795,0.00087-0.13937-0.02337-0.16557-0.12535c-0.54269-2.11263-1.09464-4.22308-1.63233-6.33669" style="fill:#0052CC;"/><path d="M13.58722,21.6064c-0.09654-0.3793-0.287-0.64141-0.6488-0.80252    c-0.59597-0.26504-1.21542-0.44975-1.84824-0.59738c-0.02772-0.00663-0.05447-0.0175-0.08164-0.02631    c0-0.01946,0-0.03848,0-0.05795c0.01946-0.15937,0.11992-0.17394,0.25982-0.17329c1.10224,0.00587,2.2046,0.00337,3.30695,0.00359    c0.54737,0,0.92287,0.30505,1.02484,0.84307c0.28211,1.4872,0.56096,2.97505,0.84101,4.46279" style="fill:#FFC601;"/><path d="M28.39822,19.8047c0.23569,0.0387,0.4728,0.06903,0.70599,0.11926    c0.22948,0.04957,0.45539,0.11795,0.68217,0.18079c0.05479,0.01522,0.10676,0.04001,0.17101,0.06479    c-0.12165,0.56727-0.24178,1.12921-0.36213,1.69114c-0.27613-0.08708-0.5402-0.18612-0.81263-0.25243    c-0.49008-0.11904-0.99038-0.17014-1.48405-0.03729c-0.17851,0.04816-0.3581,0.14872-0.4978,0.2707    c-0.23678,0.20645-0.2371,0.50823-0.00859,0.72381c0.15568,0.14687,0.33832,0.26961,0.52313,0.37908    c0.3681,0.21754,0.75469,0.4042,1.11779,0.62956c0.48823,0.30309,0.8946,0.68979,1.05735,1.26618    c0.23656,0.83742-0.02185,1.95369-0.95428,2.62684c-0.53661,0.38713-1.14377,0.58988-1.78996,0.67272    c-1.0167,0.13056-2.01446,0.03077-2.98615-0.30277c-0.05403-0.01848-0.1061-0.04272-0.17481-0.07077    c0.12568-0.5889,0.25004-1.17334,0.37778-1.77105c0.08219,0.03555,0.15285,0.06392,0.22123,0.09654    c0.60118,0.28515,1.23509,0.4217,1.89933,0.41398c0.30483-0.00348,0.60347-0.05055,0.87851-0.1959    c0.50237-0.26526,0.56879-0.78024,0.12622-1.13051c-0.21645-0.17166-0.46519-0.30646-0.71174-0.43474    c-0.41029-0.21351-0.81601-0.42996-1.17281-0.7299c-1.01777-0.85492-0.88775-2.05001-0.33701-2.85416    c0.45323-0.66109,1.11954-1.01093,1.87683-1.20226c0.24124-0.06121,0.49204-0.08371,0.73784-0.12513    c0.03664-0.0062,0.07197-0.01881,0.10806-0.02848C27.859,19.8047,28.12872,19.8047,28.39822,19.8047z" style="fill:#0052CC;"/><path d="M36.99157,28.05876c-0.65717,0-1.28684,0-1.93336,0c-0.0611-0.28874-0.12448-0.5777-0.1834-0.86764    c-0.06871-0.34038-0.06708-0.3406-0.41964-0.3406c-0.73621,0-1.47241,0.00196-2.20895-0.00207    c-0.10263-0.00054-0.15252,0.02892-0.18611,0.12893c-0.11079,0.32745-0.22939,0.65239-0.35279,0.97549    c-0.01739,0.04555-0.07881,0.10589-0.12045,0.10643c-0.6974,0.00652-1.39479,0.00457-2.10762,0.00457    c0.01804-0.05077,0.02956-0.09099,0.04576-0.12937c1.02549-2.44986,2.05153-4.89982,3.07822-7.34968    c0.17394-0.41529,0.49574-0.62934,0.94255-0.62999c0.57716-0.00054,1.15432-0.00022,1.75268-0.00022    C35.86215,22.65266,36.42518,25.34756,36.99157,28.05876z M34.45714,25.19536c-0.21167-1.01408-0.41866-2.00794-0.62597-3.00136    c-0.01087-0.00141-0.02152-0.00283-0.03229-0.00435c-0.36093,0.99647-0.72164,1.9925-1.08887,3.00571    C33.30195,25.19536,33.8628,25.19536,34.45714,25.19536z" style="fill:#0052CC;"/><path d="M20.04218,28.06583c0.58173-2.71686,1.15857-5.41197,1.73539-8.10523    c0.70164,0,1.38871,0,2.09318,0c-0.05589,0.26787-0.10872,0.52574-0.16351,0.78306    c-0.50813,2.37713-1.0181,4.75382-1.52101,7.13225c-0.03218,0.1522-0.08654,0.19677-0.24188,0.19394    c-0.5726-0.01055-1.14541-0.00402-1.71822-0.00402C20.17362,28.06583,20.12132,28.06583,20.04218,28.06583z" style="fill:#0052CC;"/><g><path d="     M38.66391,34.9327H9.33609c-1.21976,0-2.20862-0.98886-2.20862-2.20862V15.27592c0-1.21976,0.98886-2.20862,2.20862-2.20862     h29.32782c1.21976,0,2.20862,0.98886,2.20862,2.20862v17.44817C40.87253,33.94385,39.88367,34.9327,38.66391,34.9327z" style="fill:none;stroke:#303030;stroke-width:0.8;stroke-linecap:round;stroke-linejoin:round;stroke-miterlimit:10;"/></g></g></g></svg>